<svg width="100" height="28" viewBox="0 0 100 28" fill="none" xmlns="http://www.w3.org/2000/svg">
<path d="M19.521 0.0529785V20.967H14.681V12.392H5.18003V20.967H0.340027V0.0529785H5.18003V8.29898H14.681V0.0529785H19.521Z" fill="black"/>
<path d="M40.106 4.89307L32.846 21.9531C31.292 25.8371 29.081 27.0021 26.183 27.0021C24.539 27.0021 22.748 26.4641 21.703 25.5381L23.406 22.2221C24.122 22.8491 25.108 23.2381 26.034 23.2381C27.319 23.2381 28.036 22.6711 28.663 21.2371L28.724 21.0881L21.762 4.89307H26.572L31.083 15.7981L35.625 4.89307H40.106Z" fill="black"/>
<path d="M58.151 4.89308V18.2781C58.151 24.2541 54.924 27.0021 49.129 27.0021C46.081 27.0021 43.124 26.2551 41.241 24.7911L43.094 21.4451C44.468 22.5501 46.709 23.2671 48.771 23.2671C52.057 23.2671 53.492 21.7731 53.492 18.8751V18.1881C52.266 19.5321 50.504 20.1891 48.413 20.1891C43.961 20.1891 40.376 17.1121 40.376 12.4211C40.376 7.73108 43.961 4.65308 48.413 4.65308C50.653 4.65308 52.506 5.40008 53.73 6.95308V4.89308H58.151ZM53.55 12.4221C53.55 10.0621 51.787 8.47908 49.337 8.47908C46.887 8.47908 45.095 10.0621 45.095 12.4221C45.095 14.7821 46.887 16.3661 49.337 16.3661C51.787 16.3661 53.55 14.7821 53.55 12.4221Z" fill="black"/>
<path d="M79.064 4.89308V18.2781C79.064 24.2541 75.837 27.0021 70.042 27.0021C66.994 27.0021 64.037 26.2551 62.154 24.7911L64.007 21.4451C65.381 22.5501 67.622 23.2671 69.684 23.2671C72.97 23.2671 74.405 21.7731 74.405 18.8751V18.1881C73.179 19.5321 71.417 20.1891 69.326 20.1891C64.874 20.1891 61.289 17.1121 61.289 12.4211C61.289 7.73108 64.874 4.65308 69.326 4.65308C71.566 4.65308 73.419 5.40008 74.643 6.95308V4.89308H79.064ZM74.463 12.4221C74.463 10.0621 72.7 8.47908 70.25 8.47908C67.8 8.47908 66.008 10.0621 66.008 12.4221C66.008 14.7821 67.8 16.3661 70.25 16.3661C72.701 16.3661 74.463 14.7821 74.463 12.4221Z" fill="black"/>
<path d="M99.0521 14.245H86.8921C87.3401 16.246 89.0431 17.472 91.4941 17.472C93.1961 17.472 94.4221 16.964 95.5271 15.918L98.0061 18.607C96.5121 20.31 94.2721 21.207 91.3731 21.207C85.8161 21.207 82.201 17.711 82.201 12.931C82.201 8.12003 85.8761 4.65503 90.7751 4.65503C95.4961 4.65503 99.1411 7.82203 99.1411 12.99C99.1421 13.348 99.0811 13.856 99.0521 14.245ZM86.8321 11.526H94.7491C94.4211 9.49403 92.8971 8.18003 90.8061 8.18003C88.6851 8.18003 87.1611 9.46403 86.8321 11.526Z" fill="black"/>
</svg>
