<svg width="155" height="43" viewBox="0 0 155 43" fill="none" xmlns="http://www.w3.org/2000/svg">
<path d="M74.521 12.053V32.967H69.681V24.392H60.18V32.967H55.34V12.053H60.18V20.299H69.681V12.053H74.521Z" fill="black"/>
<path d="M95.106 16.8931L87.846 33.9531C86.292 37.8371 84.081 39.0021 81.183 39.0021C79.539 39.0021 77.748 38.4641 76.703 37.5381L78.406 34.2221C79.122 34.8491 80.108 35.2381 81.034 35.2381C82.319 35.2381 83.036 34.6711 83.663 33.2371L83.724 33.0881L76.762 16.8931H81.572L86.083 27.7981L90.625 16.8931H95.106V16.8931Z" fill="black"/>
<path d="M113.151 16.8931V30.2781C113.151 36.2541 109.924 39.0021 104.129 39.0021C101.081 39.0021 98.124 38.2551 96.241 36.7911L98.094 33.4451C99.468 34.5501 101.709 35.2671 103.771 35.2671C107.057 35.2671 108.492 33.7731 108.492 30.8751V30.1881C107.266 31.5321 105.504 32.1891 103.413 32.1891C98.961 32.1891 95.376 29.1121 95.376 24.4211C95.376 19.7311 98.961 16.6531 103.413 16.6531C105.653 16.6531 107.506 17.4001 108.73 18.9531V16.8931H113.151ZM108.55 24.4221C108.55 22.0621 106.787 20.4791 104.337 20.4791C101.887 20.4791 100.095 22.0621 100.095 24.4221C100.095 26.7821 101.887 28.3661 104.337 28.3661C106.787 28.3661 108.55 26.7821 108.55 24.4221Z" fill="black"/>
<path d="M134.064 16.8931V30.2781C134.064 36.2541 130.837 39.0021 125.042 39.0021C121.994 39.0021 119.037 38.2551 117.154 36.7911L119.007 33.4451C120.381 34.5501 122.622 35.2671 124.684 35.2671C127.97 35.2671 129.405 33.7731 129.405 30.8751V30.1881C128.179 31.5321 126.417 32.1891 124.326 32.1891C119.874 32.1891 116.289 29.1121 116.289 24.4211C116.289 19.7311 119.874 16.6531 124.326 16.6531C126.566 16.6531 128.419 17.4001 129.643 18.9531V16.8931H134.064ZM129.463 24.4221C129.463 22.0621 127.7 20.4791 125.25 20.4791C122.8 20.4791 121.008 22.0621 121.008 24.4221C121.008 26.7821 122.8 28.3661 125.25 28.3661C127.701 28.3661 129.463 26.7821 129.463 24.4221Z" fill="black"/>
<path d="M154.052 26.245H141.892C142.34 28.246 144.043 29.472 146.494 29.472C148.196 29.472 149.422 28.964 150.527 27.918L153.006 30.607C151.512 32.31 149.272 33.207 146.373 33.207C140.816 33.207 137.201 29.711 137.201 24.931C137.201 20.12 140.876 16.655 145.775 16.655C150.496 16.655 154.141 19.822 154.141 24.99C154.142 25.348 154.081 25.856 154.052 26.245ZM141.832 23.526H149.749C149.421 21.494 147.897 20.18 145.806 20.18C143.685 20.18 142.161 21.464 141.832 23.526Z" fill="black"/>
<path d="M42.88 21.44C42.88 9.599 33.281 0 21.44 0C9.599 0 0 9.599 0 21.44C0 26.826 2.001 31.735 5.28 35.501V19.897H12.698V29.848H21.579V19.897H28.997V41.484C37.104 38.425 42.88 30.617 42.88 21.44Z" fill="#00CC96"/>
<path d="M12.698 35.5891V41.0041C15.37 42.2001 18.323 42.8801 21.44 42.8801C21.487 42.8801 21.533 42.8731 21.58 42.8731V35.5891H12.698Z" fill="#00CC96"/>
<path d="M21.58 19.897V29.848H12.699V19.897H5.28003V35.501C7.31303 37.835 9.83603 39.723 12.698 41.004V35.589H21.579V42.873C24.192 42.856 26.685 42.356 28.997 41.484V19.897H21.58Z" fill="white"/>
<path d="M32.884 7.12906C32.778 7.14206 32.46 7.17706 32.058 7.21906C31.779 7.24806 31.507 7.27106 31.324 7.28506C30.961 6.62506 30.318 6.16406 29.514 6.16406C28.882 6.16406 28.368 6.36006 27.937 6.89906C27.575 7.35106 27.34 7.97506 27.111 8.30006C25.245 10.9451 22.27 11.4071 18.783 11.4071C17.979 11.4071 17.2 11.3081 16.448 11.1351C16.327 11.1071 16.208 11.2291 16.263 11.3411C17.674 14.1941 21.037 16.2561 23.769 16.7081V19.8591H24.565V16.7911C24.644 16.7951 24.725 16.8031 24.803 16.8041C25.295 16.8071 25.738 16.7681 26.158 16.7061V19.8591H26.954V16.5421C28.243 16.1911 29.199 15.4921 30.027 14.4851C31.025 13.2711 31.608 11.1131 31.643 9.01306C31.773 8.88006 32.074 8.56506 32.276 8.29406C32.74 7.67006 33.104 7.10106 32.884 7.12906ZM29.712 8.53306C29.37 8.53306 29.093 8.25606 29.093 7.91406C29.093 7.57206 29.37 7.29506 29.712 7.29506C30.054 7.29506 30.331 7.57206 30.331 7.91406C30.331 8.25606 30.054 8.53306 29.712 8.53306Z" fill="white"/>
</svg>
