<svg width="20" height="20" viewBox="0 0 20 20" fill="none" xmlns="http://www.w3.org/2000/svg">
<path d="M14.5 1H5.5C3.01472 1 1 3.01472 1 5.5V14.5C1 16.9853 3.01472 19 5.5 19H14.5C16.9853 19 19 16.9853 19 14.5V5.5C19 3.01472 16.9853 1 14.5 1Z" stroke="black" stroke-width="2" stroke-linecap="round" stroke-linejoin="round"/>
<path d="M13.6 9.43254C13.7111 10.1816 13.5832 10.9465 13.2344 11.6187C12.8857 12.2908 12.3339 12.8358 11.6575 13.1762C10.9811 13.5167 10.2146 13.6352 9.46704 13.5149C8.71944 13.3946 8.02881 13.0416 7.49338 12.5062C6.95795 11.9708 6.60499 11.2801 6.48469 10.5325C6.36439 9.78494 6.48289 9.01844 6.82332 8.34208C7.16376 7.66571 7.7088 7.11391 8.38092 6.76516C9.05303 6.41641 9.81801 6.28847 10.567 6.39954C11.3311 6.51284 12.0384 6.86886 12.5846 7.41501C13.1307 7.96117 13.4867 8.66851 13.6 9.43254Z" stroke="black" stroke-width="2" stroke-linecap="round" stroke-linejoin="round"/>
<path d="M14.95 5.05029H14.9583" stroke="black" stroke-width="2" stroke-linecap="round" stroke-linejoin="round"/>
</svg>
